# xmcd CD database file
#
# Track frame offsets:
#	150
#	20265
#	46203
#	58008
#	88210
#	106342
#	129885
#	156197
#	181037
#	201859
#	225221
#
# Disc length: 3246 seconds
#
# Revision: 0
# Processed by: cddbd v1.5.2PL0 Copyright (c) Steve Scherf et al.
# Submitted via: CDex 1.51
#
DISCID=7e0cac0b
DTITLE=Martin Irouschek - SAXOMArT
DYEAR=2012
DGENRE=Jazz
TTITLE0=Der Würdenträger
TTITLE1=Bariblues
TTITLE2=Du!
TTITLE3=Saxgroove
TTITLE4=Alte Hüte
TTITLE5=Chillst Du?
TTITLE6=Lebenslied
TTITLE7=Zeit
TTITLE8=G&So
TTITLE9=Lebenslied (Radioversion)
TTITLE10=Ballade
EXTD=YEAR: 2012
EXTT0=
EXTT1=
EXTT2=
EXTT3=
EXTT4=
EXTT5=
EXTT6=
EXTT7=
EXTT8=
EXTT9=
EXTT10=
PLAYORDER=
